<svg xmlns="http://www.w3.org/2000/svg" width="1200" height="630" viewBox="0 0 1200 630">
  <defs>
    <linearGradient id="bg" x1="0" y1="0" x2="1" y2="1"><stop offset="0" stop-color="#07111f"/><stop offset="1" stop-color="#102338"/></linearGradient>
    <radialGradient id="glow" cx="0.75" cy="0.2" r="0.8"><stop offset="0" stop-color="#67e8f9" stop-opacity=".20"/><stop offset="1" stop-color="#67e8f9" stop-opacity="0"/></radialGradient>
  </defs>
  <rect width="1200" height="630" rx="32" fill="url(#bg)"/>
  <rect width="1200" height="630" rx="32" fill="url(#glow)"/>
  <circle cx="1030" cy="315" r="170" fill="#0b1727" stroke="#67e8f9" stroke-opacity=".35" stroke-width="3"/>
  <circle cx="1030" cy="315" r="145" fill="#1e293b"/>
  <path d="M905 485C932 394 978 349 1030 349C1082 349 1128 394 1155 485C1118 513 1077 530 1030 530C983 530 942 513 905 485Z" fill="#0f1e31"/>
  <circle cx="1030" cy="290" r="85" fill="#1e293b" stroke="#67e8f9" stroke-opacity=".9" stroke-width="3"/>
  <text x="80" y="105" fill="#67e8f9" font-family="Arial, sans-serif" font-size="22" font-weight="700" letter-spacing="5">SATYAM YADAV</text>
  <text x="80" y="205" fill="#e5edf7" font-family="Arial, sans-serif" font-size="62" font-weight="800">Backend Software</text>
  <text x="80" y="276" fill="#e5edf7" font-family="Arial, sans-serif" font-size="62" font-weight="800">Engineer</text>
  <text x="80" y="342" fill="#9aaabd" font-family="Arial, sans-serif" font-size="22">Java · Spring Boot · Kafka · Oracle · C · Telecom BSS</text>
  <text x="80" y="448" fill="#e5edf7" font-family="Arial, sans-serif" font-size="24" font-weight="700">5M+ tx/day</text>
  <text x="300" y="448" fill="#e5edf7" font-family="Arial, sans-serif" font-size="24" font-weight="700">99.8% SLA</text>
  <text x="500" y="448" fill="#e5edf7" font-family="Arial, sans-serif" font-size="24" font-weight="700">500K+ events/day</text>
  <text x="80" y="492" fill="#7f8ea1" font-family="Arial, sans-serif" font-size="16">Production systems · Distributed workflows · Reliability · Secure services</text>
</svg>
